HIERARCHY
ROOT Hips
{
  OFFSET 57.8838 95.319 338.509
  CHANNELS 6 Xposition Yposition Zposition Zrotation Xrotation Yrotation
  JOINT LeftUpLeg
  {
    OFFSET 8.64259 1.95398 -2.38835
    CHANNELS 3 Zrotation Xrotation Yrotation
    JOINT LeftLeg
    {
      OFFSET 43.7702 0 0
      CHANNELS 3 Zrotation Xrotation Yrotation
      JOINT LeftFoot
      {
        OFFSET 40.6238 0 0
        CHANNELS 3 Zrotation Xrotation Yrotation
        JOINT LeftToeBase
        {
          OFFSET 12.7242 0 0
          CHANNELS 3 Zrotation Xrotation Yrotation
          End Site
          {
            OFFSET 0 0 0
          }
        }
      }
    }
  }
  JOINT RightUpLeg
  {
    OFFSET -8.2249 1.95398 -2.59336
    CHANNELS 3 Zrotation Xrotation Yrotation
    JOINT RightLeg
    {
      OFFSET 43.5653 0 0
      CHANNELS 3 Zrotation Xrotation Yrotation
      JOINT RightFoot
      {
        OFFSET 40.6238 0 0
        CHANNELS 3 Zrotation Xrotation Yrotation
        JOINT RightToeBase
        {
          OFFSET 12.7242 0 0
          CHANNELS 3 Zrotation Xrotation Yrotation
          End Site
          {
            OFFSET 0 0 0
          }
        }
      }
    }
  }
  JOINT Spine
  {
    OFFSET 0.165834 0.87714 6.61349
    CHANNELS 3 Zrotation Xrotation Yrotation
    JOINT Spine1
    {
      OFFSET 7.38963 1.71661e-005 0
      CHANNELS 3 Zrotation Xrotation Yrotation
      JOINT Spine2
      {
        OFFSET 11.9445 1.14441e-005 0
        CHANNELS 3 Zrotation Xrotation Yrotation
        JOINT Spine3
        {
          OFFSET 14.7254 4.19617e-005 0
          CHANNELS 3 Zrotation Xrotation Yrotation
          JOINT Spine4
          {
            OFFSET 10.9679 0 0
            CHANNELS 3 Zrotation Xrotation Yrotation
            JOINT RightShoulder
            {
              OFFSET 2.46616 -1.6653 3.69651
              CHANNELS 3 Zrotation Xrotation Yrotation
              JOINT RightArm
              {
                OFFSET 13.0012 0 0
                CHANNELS 3 Zrotation Xrotation Yrotation
                JOINT RightForeArm
                {
                  OFFSET 28.7848 1.62311e-005 0
                  CHANNELS 3 Zrotation Xrotation Yrotation
                  JOINT RightHand
                  {
                    OFFSET 26.5688 1.62095e-005 0
                    CHANNELS 3 Zrotation Xrotation Yrotation
                    End Site
                    {
                      OFFSET 0 0 0
                    }
                  }
                }
              }
            }
            JOINT LeftShoulder
            {
              OFFSET 2.38034 -1.29275 -3.7523
              CHANNELS 3 Zrotation Xrotation Yrotation
              JOINT LeftArm
              {
                OFFSET 16.3182 6.07031e-005 0
                CHANNELS 3 Zrotation Xrotation Yrotation
                JOINT LeftForeArm
                {
                  OFFSET 27.0901 0 0
                  CHANNELS 3 Zrotation Xrotation Yrotation
                  JOINT LeftHand
                  {
                    OFFSET 24.5451 1.51738e-005 0
                    CHANNELS 3 Zrotation Xrotation Yrotation
                    End Site
                    {
                      OFFSET 0 0 0
                    }
                  }
                }
              }
            }
            JOINT Neck
            {
              OFFSET 5.0226 -0.0266342 0
              CHANNELS 3 Zrotation Xrotation Yrotation
              JOINT Head
              {
                OFFSET 6.69364 2.86102e-005 0
                CHANNELS 3 Zrotation Xrotation Yrotation
                End Site
                {
                  OFFSET 0 0 0
                }
              }
            }
          }
        }
      }
    }
  }
}
MOTION
Frames:	18
Frame Time:	0.0416667
-311.702 87.6904 296.908 106.34 41.1121 90.9436 -170.715 13.762 89.321 76.223 -34.4028 150.571 133.969 -64.0135 -157.214 124.143 16.7809 -29.4855 114.033 -30.8935 40.2768 10.2786 -10.7423 44.494 57.4612 29.4868 -19.2499 44.0365 32.7911 -115.803 0.120004 4.10592 -92.8216 18.5988 -1.25233 -5.48935 6.91712 -1.49237 -5.42919 -15.5251 0.452523 -5.6118 4.48755 0.452528 -5.61181 113.215 -2.34175 -42.8919 48.322 -74.2168 -66.8997 160.933 -46.6739 -179.986 -3.98882 1.867 -60.6082 -58.6866 -30.7473 133.355 -67.5756 38.2366 85.7949 -12.6486 -6.22013 -143.477 35.7487 -5.74129 -20.629 -95.329 -39.4325 2.5108 59.8496 -32.0425 9.10182 
-311.953 87.7171 297.188 106.064 41.1841 90.9285 -170.744 13.7151 89.0272 75.9843 -34.2086 150.664 131.777 -64.191 -158.715 123.813 16.5388 -29.651 114.202 -31.1301 40.8269 13.4824 -13.9492 44.9883 59.6175 29.0084 -22.9766 43.6558 30.9164 -116.93 0.129574 4.09407 -92.7936 18.6241 -1.21948 -5.43885 6.94263 -1.45731 -5.38019 -15.5013 0.468784 -5.55379 4.51134 0.468789 -5.55381 113.324 -2.53373 -42.7383 41.1831 -75.4881 -73.7635 161.042 -51.5385 -179.996 -4.39353 2.09813 -60.9414 -58.9091 -30.3476 133.146 -68.3475 38.625 86.3058 -12.7402 -6.5143 -144.072 36.3018 -5.69809 -20.2599 -95.0719 -39.1398 2.39564 59.6543 -31.7502 9.34107 
-312.717 87.7917 298.042 105.21 41.4014 90.8868 -170.834 13.591 88.1259 75.2323 -33.6336 150.939 125.162 -64.6463 -163.328 122.806 15.8752 -30.0913 114.756 -31.955 42.8932 25.8947 -26.0255 48.0161 66.4611 27.7054 -36.1801 41.8058 24.2508 -120.204 0.158834 4.05745 -92.7073 18.7023 -1.11836 -5.28354 7.02136 -1.3495 -5.22943 -15.4278 0.518776 -5.37537 4.58483 0.518783 -5.37538 113.657 -3.11768 -42.2732 14.5126 -77.4445 -99.575 161.856 -66.1309 -179.967 -5.02482 2.49241 -61.9572 -59.5773 -29.1345 132.51 -70.6549 39.7915 87.8476 -13.048 -7.40134 -145.884 37.9579 -5.53329 -19.1193 -94.2705 -38.2173 2.04287 59.0019 -30.8217 10.0875 
-313.936 87.8903 299.391 103.827 41.7347 90.8349 -170.98 13.313 86.7032 74.1166 -32.8023 151.346 115.063 -65.1263 -170.598 121.205 15.05 -30.5847 115.648 -33.3356 46.7215 52.4346 -45.8886 61.1712 75.5712 24.875 -59.1047 35.5901 9.06198 -123.391 0.205569 3.99823 -92.5692 18.8285 -0.956682 -5.03521 7.14835 -1.17705 -4.98844 -15.3089 0.598724 -5.09006 4.70374 0.598749 -5.09007 114.188 -4.03417 -41.5493 -22.3297 -75.054 -135.174 164.103 -87.2511 -179.712 -4.51883 2.27385 -63.131 -60.5959 -27.2464 131.515 -74.0999 41.5883 90.1864 -13.6311 -8.74462 -148.723 40.4665 -5.1696 -17.2718 -92.9526 -36.6691 1.48227 57.7836 -29.2396 11.3275 
-315.599 88.0013 301.17 101.944 42.1519 90.7949 -171.177 12.82 84.8074 72.7879 -31.8388 151.831 102.651 -65.399 -179.929 119.068 14.3624 -30.8404 117.379 -34.0945 52.7536 87.7245 -60.3547 88.078 81.4178 18.7702 -83.1286 25.0998 -13.9982 -121.735 0.268095 3.91742 -92.3844 18.9997 -0.739986 -4.70359 7.32064 -0.946051 -4.6666 -15.1469 0.706187 -4.70878 4.86571 0.706172 -4.70878 114.895 -5.23258 -40.6153 -43.4374 -68.4092 -154.858 -13.2038 -70.1237 -0.0316142 -2.39252 1.09833 -63.2839 -61.8655 -24.8231 130.227 -78.1466 43.9242 92.9775 -14.6039 -10.3496 -152.401 43.556 -4.49422 -14.7413 -91.107 -34.4476 0.732738 55.7785 -26.9278 13.1178 
-317.744 87.9829 303.336 99.5888 42.6142 90.7965 -171.407 12.177 82.4229 71.1689 -30.7619 152.376 89.2566 -65.4901 169.521 116.428 14.1011 -30.522 119.941 -33.5767 61.0563 114.445 -70.1872 113.185 83.2024 -0.37167 -90.2527 18.6729 -33.1408 -114.085 0.344988 3.81589 -92.1592 19.2131 -0.474112 -4.30043 7.53525 -0.662736 -4.27548 -14.9441 0.839039 -4.24445 5.06858 0.839041 -4.24445 115.757 -6.66065 -39.5219 -51.8069 -61.4684 -161.936 -9.81083 -50.9455 -0.0101313 0.439168 -0.466304 -61.6672 -63.2791 -22.0272 128.719 -82.0269 46.8054 95.6523 -16.1169 -11.9323 -156.685 46.9084 -3.38131 -11.5378 -88.6988 -31.5157 -0.213799 52.7091 -23.8055 15.6646 
-320.385 87.6941 305.834 96.8 43.076 90.8778 -171.657 11.4101 79.5337 69.2162 -29.5603 152.97 75.7932 -65.657 158.221 113.291 14.4545 -29.3212 122.908 -31.976 70.4127 145.665 -81.7418 145.385 84.319 -13.3679 -108.543 19.3136 -46.4108 -100.271 0.434586 3.69508 -91.9012 19.4651 -0.165878 -3.84082 7.78857 -0.334623 -3.82983 -14.7031 0.995307 -3.7135 5.30952 0.995296 -3.71351 116.747 -8.26519 -38.3219 -53.8839 -56.3248 -163.183 -6.28635 -37.5416 -0.00384883 2.85309 -1.67164 -58.7716 -64.7318 -19.0346 127.078 -84.7206 50.351 97.3491 -18.3273 -13.154 -161.248 50.1654 -1.72117 -7.67314 -85.799 -28.4082 -1.58189 49.3759 -19.9216 20.2109 
-323.357 87.3503 308.59 93.6279 43.4894 91.0802 -172.06 10.3077 76.3468 67.5121 -28.3807 153.518 62.6455 -65.8861 145.968 109.665 15.411 -27.0879 125.881 -29.4258 73.4998 109.023 -86.6421 108.99 78.3482 -36.8026 -114.124 28.6018 -55.0659 -77.3747 0.535055 3.55683 -91.6199 19.7515 0.176424 -3.34257 8.07624 0.0292264 -3.3471 -14.4277 1.17234 -3.13541 5.58495 1.17235 -3.13542 117.837 -9.9976 -37.0671 -52.2532 -53.3247 -161.42 -2.4082 -29.5763 -0.00212683 4.46384 -2.32636 -55.5266 -66.1356 -16.0079 125.39 -85.0003 54.6847 96.8889 -21.3379 -13.7411 -165.641 52.968 0.531899 -3.18284 -82.8234 -27.1855 -4.1679 50.3563 -14.6066 31.1602 
-326.543 87.0728 311.533 90.1372 43.8109 91.44 -172.755 8.84185 72.9508 66.424 -27.221 153.949 49.9942 -66.0375 132.62 105.645 16.7675 -23.911 128.636 -26.3115 75.0838 23.9543 -81.581 24.183 73.796 -60.042 -117.487 43.864 -55.8987 -48.1012 0.644057 3.40309 -91.3249 20.0672 0.543314 -2.82399 8.39329 0.41857 -2.84517 -14.1221 1.36666 -2.53048 5.89057 1.36668 -2.53049 119.001 -11.8172 -35.8041 -48.0692 -51.8894 -157.887 1.96295 -25.636 0.0144371 5.42143 -2.59791 -52.4985 -67.4309 -13.0724 123.729 -81.2639 59.6853 92.5733 -25.1309 -13.6141 -169.315 55.0035 3.32332 1.8644 -73.7489 -9.30495 3.41878 1.28202 -10.3294 -17.0417 
-329.844 86.9543 314.578 86.4078 44.0044 91.9819 -173.868 7.08649 69.3312 66.2574 -25.9819 154.211 38.2301 -65.8393 118.466 101.494 18.2322 -20.1166 131.028 -22.8688 76.0176 10.8029 -71.1786 11.3959 88.5052 -81.321 -102.245 52.708 -48.5285 -25.1252 0.759013 3.23642 -91.0258 20.4068 0.924968 -2.30258 8.73407 0.822748 -2.34103 -13.7915 1.5741 -1.91836 6.22111 1.5741 -1.91835 120.213 -13.6894 -34.5709 -42.1921 -51.1595 -153.355 6.69332 -24.2388 0.0156808 6.00639 -2.68333 -49.8977 -68.5845 -10.3116 122.155 -71.0988 64.6105 81.7901 -29.5467 -12.9479 -171.708 56.0404 6.489 7.37009 -69.2427 -7.40136 3.6393 -6.51075 -6.112 -25.926 
-333.205 86.9842 317.623 82.5332 44.046 92.7136 -175.485 5.16789 65.3179 67.1956 -24.4234 154.303 28.0592 -65.0836 104.417 97.6626 19.572 -16.1917 133.015 -19.354 76.4465 6.58375 -59.8114 7.60448 -145.248 -77.3087 22.9688 52.1415 -37.1579 -11.787 0.87732 3.06046 -90.7312 20.7629 1.31165 -1.79413 9.09132 1.23145 -1.85011 -13.4432 1.79018 -1.31705 6.56951 1.79017 -1.31705 121.448 -15.5843 -33.3925 -35.5067 -50.4116 -148.616 11.5204 -24.2304 0.011887 6.44402 -2.71022 -47.7517 -69.5837 -7.77478 120.714 -52.2353 67.659 62.0471 -34.2797 -12.1387 -172.379 55.9555 9.77729 13.2137 -65.006 -5.33537 3.70928 -13.3803 -1.47188 -35.317 
-336.605 87.0663 320.57 78.6107 43.927 93.6238 -177.739 3.17386 60.6329 69.3852 -22.1896 154.24 20.2395 -63.7192 91.7369 94.6273 20.7193 -12.6049 134.632 -15.9445 76.5225 4.52558 -48.9932 5.98734 -136.279 -61.443 29.3904 47.1034 -25.7178 -4.0002 0.996173 2.87941 -90.4485 21.1273 1.69406 -1.3119 9.4567 1.63467 -1.38519 -13.0852 2.00998 -0.742005 6.92744 2.00997 -0.742014 122.69 -17.4769 -32.2822 -28.8016 -49.2608 -144.325 16.1971 -24.913 0.00965604 6.85093 -2.7332 -46.0126 -70.4304 -5.48464 119.434 -28.7016 66.5117 37.1937 -38.9167 -11.6392 -171.175 54.7383 12.9056 19.2686 -61.1643 -3.96509 3.24861 -18.1162 2.41065 -41.5966 
-340.029 87.0751 323.332 74.7296 43.6528 94.6864 179.074 1.18762 54.9556 73.047 -18.8594 154.004 15.3025 -61.813 81.5874 92.6989 21.7404 -9.64651 135.958 -12.7262 76.3675 3.30909 -39.6699 5.1757 -134.024 -48.5824 28.0644 41.3589 -16.3762 1.02212 1.11264 2.69726 -90.1839 21.4921 2.06297 -0.866 9.82244 2.02286 -0.955991 -12.7256 2.22781 -0.205677 7.28704 2.22783 -0.205685 123.921 -19.3445 -31.2482 -22.6083 -47.6145 -140.921 20.5757 -25.9297 0.0121133 7.26696 -2.76757 -44.6145 -71.1361 -3.44406 118.328 -10.4914 60.9033 17.1185 -43.02 -11.7593 -168.227 52.4767 15.6204 25.405 -57.6312 -3.13481 2.54104 -21.692 5.46949 -45.7247 
-343.546 86.6954 325.866 70.9671 43.2398 95.8677 174.547 -0.534157 47.8016 73.9565 -21.8333 152.186 7.4334 -67.7244 64.0342 91.9509 22.7513 -7.38245 137.074 -9.77046 76.0084 2.51953 -32.0684 4.7388 -132.299 -38.6845 25.6789 36.4975 -9.62122 4.47736 1.22376 2.51742 -89.942 21.8509 2.40972 -0.46369 10.1821 2.38699 -0.56936 -12.3709 2.43761 0.282413 7.64173 2.43762 0.2824 125.122 -21.1646 -30.2992 -17.1854 -45.5329 -138.593 24.5917 -27.1055 0.0142854 7.69602 -2.81332 -43.4931 -71.7175 -1.64366 117.394 -0.16501 52.6548 4.34744 -46.1927 -12.5795 -163.852 49.3465 17.7303 31.4707 -54.3444 -2.67901 1.74584 -24.6336 7.8793 -48.4328 
-347.272 85.4989 328.194 67.3846 42.7133 97.1318 168.192 -1.3326 38.5626 -146.838 57.8435 59.6209 -8.50674 60.2395 82.0206 92.2483 23.8628 -5.68088 138.056 -7.13619 75.4282 1.94813 -25.7132 4.48447 -130.717 -31.1205 22.8811 32.8343 -5.01448 6.93677 1.32645 2.34266 -89.7261 22.1986 2.72679 -0.109235 10.5305 2.71935 -0.229237 -12.0265 2.63347 0.715919 7.98614 2.63348 0.715914 126.274 -22.9144 -29.4453 -12.5844 -43.128 -137.331 28.2418 -28.3534 0.0163821 8.12836 -2.86558 -42.5908 -72.1925 -0.067759 116.62 4.89334 43.3997 -3.70955 -48.167 -13.9632 -158.465 45.5978 19.1264 37.2824 -51.2698 -2.4728 0.949704 -27.1965 9.80281 -50.2084 
-351.072 83.5808 330.329 64.024 42.1017 98.4461 159.519 0.205083 27.3551 -104.132 27.225 33.5623 87.2311 78.9755 -31.0757 93.3302 25.1316 -4.33803 138.957 -4.86853 74.6694 1.47558 -19.891 4.331 -129.358 -25.1298 19.6051 30.2152 -1.94688 8.73832 1.41849 2.17518 -89.5376 22.5312 3.00871 0.196114 10.8638 3.01442 0.0633803 -11.6965 2.81055 1.092 8.31613 2.81056 1.092 127.357 -24.5728 -28.6968 -8.73787 -40.5059 -137.008 31.5598 -29.6241 0.0184191 8.55152 -2.9195 -41.8621 -72.5783 1.30292 115.992 6.9415 34.1216 -9.2325 -48.8777 -15.6447 -152.508 41.5169 19.7971 42.6493 -48.3894 -2.43018 0.198413 -29.501 11.3651 -51.3622 
-354.935 80.8335 332.501 60.9089 41.4327 99.7845 149.464 6.03165 15.3456 -111.136 38.4978 41.3499 -1.5674 70.1568 74.5447 94.8899 26.4883 -3.28024 139.828 -2.91844 64.4646 33.4616 -51.7027 40.1575 -111.084 -37.55 64.1106 28.416 0.049365 10.0892 1.4984 2.01672 -89.3769 22.8456 3.25217 0.453347 11.1787 3.26896 0.309624 -11.3842 2.96543 1.41061 8.62847 2.96544 1.41061 128.35 -26.1211 -28.063 -5.53859 -37.7383 -137.443 34.6002 -30.8748 0.0204091 8.95491 -2.97147 -41.2734 -72.8901 2.48864 115.492 7.27758 25.4091 -13.3969 -48.4483 -17.3534 -146.388 37.3752 19.8183 47.4141 -45.6917 -2.49301 -0.483876 -31.604 12.6569 -52.0927 
-358.816 77.385 335.086 58.049 40.7315 101.127 140.734 16.8578 4.71744 115.453 21.5106 146.744 29.7983 -51.0148 60.3375 96.6269 27.691 -2.67288 140.657 -1.3939 55.3139 106.931 -47.4459 102.726 -87.2091 -38.0883 116.704 27.2402 1.29571 11.1209 1.56529 1.86879 -89.2429 23.139 3.45569 0.664908 11.4726 3.48162 0.51198 -11.0923 3.09599 1.67363 8.92038 3.09597 1.67363 129.235 -27.5415 -27.5535 -2.881 -34.859 -138.446 37.4358 -32.0556 0.0222854 9.32993 -3.01906 -40.8004 -73.1402 3.50803 115.104 6.6393 17.6112 -16.7795 -47.138 -18.8874 -140.462 33.3886 19.3231 51.4843 -43.1666 -2.61981 -1.08426 -33.5322 13.744 -52.5378 
